<?xml version="1.0" encoding="UTF-8"?>
<!DOCTYPE svg PUBLIC "-//W3C//DTD SVG 1.1//EN" "http://www.w3.org/Graphics/SVG/1.1/DTD/svg11.dtd">
<!-- Creator: CorelDRAW Home & Student 2019 -->
<svg xmlns="http://www.w3.org/2000/svg" xml:space="preserve" width="300px" height="122px" version="1.1" style="shape-rendering:geometricPrecision; text-rendering:geometricPrecision; image-rendering:optimizeQuality; fill-rule:evenodd; clip-rule:evenodd"
viewBox="0 0 226.44 92.15"
 xmlns:xlink="http://www.w3.org/1999/xlink">
 <defs>
  <style type="text/css">
   <![CDATA[
    .fil2 {fill:#80B76A}
    .fil1 {fill:#017A3D}
    .fil0 {fill:#2B2A29;fill-rule:nonzero}
   ]]>
  </style>
 </defs>
 <g id="Warstwa_x0020_1">
  <metadata id="CorelCorpID_0Corel-Layer"/>
  <path class="fil0" d="M114.67 6.9c0,-2.43 -1.03,-4.44 -2.86,-5.55 -1.2,-0.72 -2.61,-0.98 -5.41,-0.98l-5.24 0 0 21.15 3.92 0 0 -8.04 1.26 0c3.01,0 4.38,-0.23 5.55,-0.94 1.72,-1.06 2.78,-3.21 2.78,-5.64zm-3.95 0.06c0,1.83 -0.97,2.77 -4.49,2.77l-1.15 0 0 -5.61 1.32 0c3,0 4.32,0.6 4.32,2.84z"/>
  <path class="fil0" d="M138.14 10.93c0,-6.04 -4.84,-10.93 -10.88,-10.93 -6.29,0 -11.16,4.78 -11.16,10.96 0,6.1 4.92,10.94 11.14,10.94 6.15,0 10.9,-4.78 10.9,-10.97zm-3.95 0.06c0,4.07 -2.98,7.13 -6.98,7.13 -4.01,0 -7.16,-3.15 -7.16,-7.16 0,-4.09 3.09,-7.18 7.16,-7.18 3.92,0 6.98,3.15 6.98,7.21z"/>
  <polygon class="fil0" points="163.33,21.52 163.33,0.37 157.95,0.37 152.31,16.4 146.61,0.37 141.23,0.37 141.23,21.52 145.15,21.52 145.15,5.67 150.68,21.52 153.88,21.52 159.41,5.67 159.41,21.52 "/>
  <path class="fil0" d="M187.95 10.93c0,-6.04 -4.84,-10.93 -10.88,-10.93 -6.3,0 -11.16,4.78 -11.16,10.96 0,6.1 4.92,10.94 11.13,10.94 6.15,0 10.91,-4.78 10.91,-10.97zm-3.95 0.06c0,4.07 -2.98,7.13 -6.99,7.13 -4.01,0 -7.15,-3.15 -7.15,-7.16 0,-4.09 3.09,-7.18 7.15,-7.18 3.92,0 6.99,3.15 6.99,7.21z"/>
  <path class="fil0" d="M212.5 11.25l0 -0.52 -13.82 0 0 3.67 8.76 0c-1.15,2.34 -3.44,3.72 -6.21,3.72 -4.15,0 -7.33,-3.12 -7.33,-7.16 0,-3.98 2.92,-7.18 7.1,-7.18 2.46,0 4.49,0.97 5.81,2.8l4.61 0c-1.38,-3.8 -5.73,-6.58 -10.34,-6.58 -6.18,0 -11.13,4.84 -11.13,10.91 0,6.18 5.01,10.99 11.51,10.99 6.24,0 11.04,-4.9 11.04,-10.65z"/>
  <path class="fil0" d="M226.44 28.14l0 -2.87c-0.86,0.38 -1.31,0.38 -1.66,0.38 -0.83,0 -1.08,-0.49 -1.08,-1.52 0,-0.77 0.85,-2 2.74,-2.61l0 -3.74 -7.44 0 0 -4.93 7.13 0 0 -3.75 -7.13 0 0 -4.98 7.44 0 0 -3.75 -11.36 0 0 21.15 7.87 0c-1.32,1.04 -2.29,2.49 -2.29,3.87 0,1.92 1.63,3.29 3.61,3.29 0.63,0 1.26,-0.17 2.17,-0.54z"/>
  <path class="fil0" d="M114.9 46.96c0,-2.51 -0.92,-4.12 -3.61,-5.23 1.69,-0.89 2.35,-2.01 2.35,-3.98 0,-1.98 -0.89,-3.64 -2.4,-4.61 -1.26,-0.8 -2.58,-1.03 -5.73,-1.03l-4.35 0 0 21.15 5.64 0c5.44,0 8.1,-2.43 8.1,-6.3zm-3.95 -0.08c0,1.83 -1.17,2.63 -3.92,2.63l-1.95 0 0 -5.41 1.86 0c2.72,0 4.01,0.89 4.01,2.78zm-1.23 -8.79c0,1.52 -1,2.18 -3.38,2.18l-1.26 0 0 -4.33 1.6 0c2.04,0 3.04,0.69 3.04,2.15z"/>
  <path class="fil0" d="M138.71 42.67c0,-6.04 -4.83,-10.93 -10.87,-10.93 -6.3,0 -11.17,4.78 -11.17,10.96 0,6.1 4.93,10.93 11.14,10.93 6.15,0 10.9,-4.78 10.9,-10.96zm-3.95 0.06c0,4.06 -2.97,7.13 -6.98,7.13 -4.01,0 -7.16,-3.15 -7.16,-7.16 0,-4.09 3.1,-7.18 7.16,-7.18 3.92,0 6.98,3.14 6.98,7.21z"/>
  <polygon class="fil0" points="123.26,85 123.26,63.85 117.88,63.85 112.24,79.88 106.54,63.85 101.16,63.85 101.16,85 105.08,85 105.08,69.14 110.61,85 113.81,85 119.34,69.14 119.34,85 "/>
  <path class="fil0" d="M147.87 74.41c0,-6.04 -4.83,-10.94 -10.87,-10.94 -6.3,0 -11.17,4.78 -11.17,10.97 0,6.09 4.93,10.93 11.14,10.93 6.15,0 10.9,-4.78 10.9,-10.96zm-3.95 0.06c0,4.06 -2.97,7.12 -6.98,7.12 -4.01,0 -7.16,-3.15 -7.16,-7.15 0,-4.1 3.09,-7.19 7.16,-7.19 3.92,0 6.98,3.15 6.98,7.22z"/>
  <path class="fil0" d="M172.43 74.72l0 -0.51 -13.82 0 0 3.66 8.76 0c-1.15,2.35 -3.44,3.72 -6.22,3.72 -4.15,0 -7.32,-3.12 -7.32,-7.15 0,-3.98 2.92,-7.19 7.1,-7.19 2.46,0 4.49,0.98 5.81,2.81l4.6 0c-1.37,-3.81 -5.72,-6.59 -10.33,-6.59 -6.18,0 -11.13,4.84 -11.13,10.91 0,6.18 5.01,10.99 11.5,10.99 6.24,0 11.05,-4.89 11.05,-10.65z"/>
  <path class="fil0" d="M186.37 91.61l0 -2.86c-0.86,0.37 -1.32,0.37 -1.66,0.37 -0.83,0 -1.09,-0.49 -1.09,-1.52 0,-0.77 0.86,-2 2.75,-2.6l0 -3.75 -7.44 0 0 -4.92 7.13 0 0 -3.75 -7.13 0 0 -4.98 7.44 0 0 -3.75 -11.36 0 0 21.15 7.87 0c-1.32,1.03 -2.29,2.49 -2.29,3.86 0,1.92 1.63,3.29 3.61,3.29 0.63,0 1.26,-0.17 2.17,-0.54z"/>
  <path class="fil1" d="M0 41.37c0,22.24 16,39.28 35.6,41.38 -2.31,-3.4 -5.47,-5.47 -8.61,-9.69l3.21 -3.12c0.09,-0.09 8.65,8.1 11.24,10.75 4.97,5.1 10.2,1.91 15.45,-1.17 -2.03,-1.96 -4.69,-4.54 -7.06,-6.84 -4.32,-4.19 -8.17,-7.93 -11.21,-10.88 3.71,-3.6 3.4,-5.25 7.33,-1.16 1.23,1.27 4.61,4.34 7.89,7.65 4.17,4.19 7.76,7.7 9.2,8.76 2.93,-1.41 6.65,-4.31 8.19,-6.86 -2.93,-3.61 -16.32,-16.66 -20.06,-20.58 0.93,-1.32 3.26,-4.13 3.82,-3.73 3.84,2.73 16.7,16.58 19.88,19.15 3.07,-1.61 5.3,-7.61 5.79,-10.87 0.06,-0.41 0.06,-0.21 -0.33,-0.61 -2.43,-2.53 -4.91,-5.03 -7.36,-7.55 -1.06,-1.09 -10.41,-10.76 -10.68,-10.87 -0.91,-0.33 -7.41,2.15 -8.74,2.55 -7.97,2.36 -19.36,1.2 -26.2,-3.74 -3.33,-2.39 -5.83,-5.66 -6.19,-9.84 -0.02,-0.31 0.03,-0.28 0.32,-0.5 1.6,-1.19 4.63,-2.72 6.43,-3.68 8.38,-4.44 17.12,-8.56 25.34,-13.23 0.96,-0.54 2.81,-1.57 3.6,-2.28 -3.33,-4.19 -15.93,-3.87 -20.84,-3.24 -20.96,2.69 -35.93,18.91 -36.01,40.2z"/>
  <path class="fil2" d="M68.18 10.39c-1.2,-0.96 -2.67,-1.99 -4.01,-2.74 -0.55,-0.3 -0.36,-0.24 -1.06,0.02 -3.81,1.43 -8.52,4.11 -12.17,6.09 -6.2,3.38 -12.37,6.79 -18.76,9.83 -4.83,2.3 -4.36,3.7 -0.48,6.77 7.25,5.51 20.55,2.36 28.37,-0.56 4.04,-1.51 4.53,-0.53 7.33,2.47 3.7,3.97 7.78,8.57 11.85,12.11 0.74,0.64 1.98,1.7 2.89,2.03 1.44,-13.67 -3.06,-27.26 -13.96,-36.02z"/>
 </g>
</svg>
