<?xml version="1.0" encoding="UTF-8"?>
<!DOCTYPE svg PUBLIC "-//W3C//DTD SVG 1.1//EN" "http://www.w3.org/Graphics/SVG/1.1/DTD/svg11.dtd">
<!-- Creator: CorelDRAW Home & Student 2019 -->
<svg xmlns="http://www.w3.org/2000/svg" xml:space="preserve" width="300px" height="122px" version="1.1" style="shape-rendering:geometricPrecision; text-rendering:geometricPrecision; image-rendering:optimizeQuality; fill-rule:evenodd; clip-rule:evenodd"
viewBox="0 0 115.15 46.86"
 xmlns:xlink="http://www.w3.org/1999/xlink">
 <defs>
  <style type="text/css">
   <![CDATA[
    .fil2 {fill:#80B76A}
    .fil1 {fill:#017A3D}
    .fil0 {fill:white;fill-rule:nonzero}
   ]]>
  </style>
 </defs>
 <g id="Warstwa_x0020_1">
  <metadata id="CorelCorpID_0Corel-Layer"/>
  <path class="fil0" d="M58.31 3.51c0,-1.24 -0.52,-2.26 -1.45,-2.83 -0.61,-0.36 -1.33,-0.49 -2.75,-0.49l-2.67 0 0 10.76 2 0 0 -4.09 0.64 0c1.53,0 2.22,-0.12 2.82,-0.48 0.87,-0.54 1.41,-1.63 1.41,-2.87zm-2.01 0.03c0,0.93 -0.49,1.41 -2.28,1.41l-0.58 0 0 -2.85 0.67 0c1.52,0 2.19,0.3 2.19,1.44z"/>
  <path class="fil0" d="M70.25 5.56c0,-3.07 -2.46,-5.56 -5.53,-5.56 -3.21,0 -5.68,2.43 -5.68,5.57 0,3.11 2.5,5.56 5.66,5.56 3.13,0 5.55,-2.43 5.55,-5.57zm-2.01 0.03c0,2.07 -1.51,3.62 -3.55,3.62 -2.04,0 -3.64,-1.6 -3.64,-3.64 0,-2.08 1.57,-3.65 3.64,-3.65 1.99,0 3.55,1.6 3.55,3.67z"/>
  <polygon class="fil0" points="83.06,10.95 83.06,0.19 80.32,0.19 77.45,8.34 74.56,0.19 71.82,0.19 71.82,10.95 73.81,10.95 73.81,2.88 76.62,10.95 78.25,10.95 81.06,2.88 81.06,10.95 "/>
  <path class="fil0" d="M95.57 5.56c0,-3.07 -2.46,-5.56 -5.53,-5.56 -3.2,0 -5.67,2.43 -5.67,5.57 0,3.11 2.5,5.56 5.66,5.56 3.13,0 5.54,-2.43 5.54,-5.57zm-2 0.03c0,2.07 -1.52,3.62 -3.56,3.62 -2.03,0 -3.63,-1.6 -3.63,-3.64 0,-2.08 1.57,-3.65 3.63,-3.65 2,0 3.56,1.6 3.56,3.67z"/>
  <path class="fil0" d="M108.06 5.72l0 -0.26 -7.03 0 0 1.86 4.46 0c-0.59,1.19 -1.75,1.89 -3.16,1.89 -2.11,0 -3.73,-1.58 -3.73,-3.64 0,-2.02 1.49,-3.65 3.61,-3.65 1.25,0 2.29,0.5 2.96,1.43l2.34 0c-0.7,-1.94 -2.91,-3.35 -5.25,-3.35 -3.15,0 -5.67,2.46 -5.67,5.55 0,3.14 2.55,5.58 5.85,5.58 3.18,0 5.62,-2.48 5.62,-5.41z"/>
  <path class="fil0" d="M115.15 14.31l0 -1.46c-0.44,0.19 -0.67,0.19 -0.84,0.19 -0.43,0 -0.56,-0.25 -0.56,-0.77 0,-0.39 0.44,-1.02 1.4,-1.32l0 -1.91 -3.78 0 0 -2.5 3.62 0 0 -1.91 -3.62 0 0 -2.53 3.78 0 0 -1.91 -5.78 0 0 10.76 4.01 0c-0.67,0.52 -1.17,1.26 -1.17,1.96 0,0.98 0.83,1.67 1.84,1.67 0.32,0 0.64,-0.08 1.1,-0.27z"/>
  <path class="fil0" d="M58.43 23.88c0,-1.28 -0.47,-2.09 -1.84,-2.66 0.86,-0.45 1.2,-1.02 1.2,-2.02 0,-1.01 -0.45,-1.85 -1.22,-2.35 -0.64,-0.41 -1.31,-0.52 -2.92,-0.52l-2.21 0 0 10.75 2.87 0c2.77,0 4.12,-1.23 4.12,-3.2zm-2.01 -0.04c0,0.93 -0.6,1.34 -1.99,1.34l-0.99 0 0 -2.75 0.94 0c1.39,0 2.04,0.45 2.04,1.41zm-0.63 -4.47c0,0.77 -0.51,1.11 -1.71,1.11l-0.64 0 0 -2.2 0.81 0c1.03,0 1.54,0.35 1.54,1.09z"/>
  <path class="fil0" d="M70.54 21.7c0,-3.07 -2.46,-5.56 -5.53,-5.56 -3.2,0 -5.68,2.43 -5.68,5.57 0,3.1 2.5,5.56 5.66,5.56 3.13,0 5.55,-2.43 5.55,-5.57zm-2.01 0.03c0,2.07 -1.51,3.62 -3.55,3.62 -2.04,0 -3.64,-1.6 -3.64,-3.64 0,-2.08 1.57,-3.65 3.64,-3.65 1.99,0 3.55,1.6 3.55,3.67z"/>
  <polygon class="fil0" points="62.68,43.22 62.68,32.47 59.94,32.47 57.08,40.62 54.18,32.47 51.44,32.47 51.44,43.22 53.44,43.22 53.44,35.16 56.25,43.22 57.88,43.22 60.68,35.16 60.68,43.22 "/>
  <path class="fil0" d="M75.2 37.84c0,-3.07 -2.46,-5.56 -5.53,-5.56 -3.21,0 -5.68,2.43 -5.68,5.57 0,3.1 2.5,5.56 5.66,5.56 3.13,0 5.55,-2.43 5.55,-5.57zm-2.01 0.03c0,2.06 -1.52,3.62 -3.55,3.62 -2.04,0 -3.64,-1.6 -3.64,-3.64 0,-2.08 1.57,-3.65 3.64,-3.65 1.99,0 3.55,1.6 3.55,3.67z"/>
  <path class="fil0" d="M87.69 38l0 -0.26 -7.04 0 0 1.86 4.46 0c-0.58,1.19 -1.75,1.89 -3.16,1.89 -2.11,0 -3.73,-1.58 -3.73,-3.64 0,-2.02 1.49,-3.65 3.61,-3.65 1.26,0 2.29,0.49 2.96,1.43l2.34 0c-0.7,-1.94 -2.91,-3.35 -5.25,-3.35 -3.15,0 -5.66,2.46 -5.66,5.54 0,3.15 2.54,5.59 5.85,5.59 3.17,0 5.62,-2.49 5.62,-5.41z"/>
  <path class="fil0" d="M94.77 46.59l0 -1.46c-0.43,0.19 -0.67,0.19 -0.84,0.19 -0.42,0 -0.55,-0.25 -0.55,-0.77 0,-0.39 0.43,-1.02 1.39,-1.33l0 -1.9 -3.78 0 0 -2.51 3.62 0 0 -1.9 -3.62 0 0 -2.54 3.78 0 0 -1.9 -5.77 0 0 10.75 4 0c-0.67,0.53 -1.17,1.27 -1.17,1.97 0,0.97 0.83,1.67 1.84,1.67 0.32,0 0.64,-0.08 1.1,-0.27z"/>
  <path class="fil1" d="M0 21.04c0,11.31 8.14,19.97 18.1,21.04 -1.17,-1.73 -2.78,-2.78 -4.37,-4.93l1.63 -1.58c0.04,-0.05 4.39,4.12 5.71,5.47 2.53,2.59 5.19,0.97 7.86,-0.6 -1.03,-1 -2.38,-2.31 -3.59,-3.48 -2.2,-2.13 -4.15,-4.03 -5.7,-5.53 1.89,-1.83 1.73,-2.68 3.73,-0.59 0.62,0.64 2.34,2.2 4.01,3.89 2.12,2.13 3.95,3.91 4.68,4.45 1.49,-0.72 3.38,-2.19 4.16,-3.49 -1.49,-1.83 -8.3,-8.47 -10.2,-10.46 0.47,-0.67 1.66,-2.1 1.95,-1.9 1.95,1.39 8.49,8.43 10.1,9.74 1.56,-0.82 2.7,-3.87 2.95,-5.53 0.03,-0.2 0.03,-0.11 -0.17,-0.31 -1.24,-1.28 -2.5,-2.56 -3.74,-3.84 -0.54,-0.55 -5.3,-5.47 -5.44,-5.52 -0.45,-0.17 -3.76,1.09 -4.44,1.29 -4.05,1.2 -9.84,0.61 -13.32,-1.9 -1.69,-1.22 -2.97,-2.88 -3.15,-5.01 -0.01,-0.15 0.02,-0.14 0.16,-0.25 0.82,-0.6 2.36,-1.38 3.28,-1.87 4.25,-2.26 8.7,-4.35 12.88,-6.73 0.49,-0.27 1.43,-0.79 1.83,-1.16 -1.69,-2.13 -8.1,-1.96 -10.6,-1.64 -10.66,1.36 -18.27,9.61 -18.31,20.44z"/>
  <path class="fil2" d="M34.67 5.28c-0.61,-0.48 -1.36,-1.01 -2.04,-1.39 -0.28,-0.15 -0.18,-0.12 -0.54,0.01 -1.94,0.73 -4.33,2.09 -6.18,3.1 -3.16,1.72 -6.3,3.45 -9.54,5 -2.46,1.16 -2.22,1.88 -0.25,3.44 3.69,2.8 10.45,1.2 14.43,-0.29 2.05,-0.76 2.3,-0.27 3.72,1.26 1.89,2.02 3.96,4.36 6.03,6.16 0.38,0.32 1.01,0.86 1.47,1.03 0.73,-6.95 -1.56,-13.86 -7.1,-18.32z"/>
 </g>
</svg>
